<?xml version="1.0" encoding="iso-8859-1"?>
<!-- Generator: Adobe Illustrator 19.0.0, SVG Export Plug-In . SVG Version: 6.00 Build 0)  -->
<svg version="1.1" id="Capa_1" xmlns="http://www.w3.org/2000/svg" xmlns:xlink="http://www.w3.org/1999/xlink" x="0px" y="0px"
	 viewBox="0 0 476.473 476.473" style="enable-background:new 0 0 476.473 476.473;" xml:space="preserve">
<g>
	<rect x="340.637" y="193.82" style="fill:#4DCFE0;" width="79.935" height="237.192"/>
	<rect x="203.755" y="284.726" style="fill:#4DCFE0;" width="79.935" height="146.286"/>
	<rect x="66.873" y="347.42" style="fill:#4DCFE0;" width="79.935" height="83.592"/>
</g>
<path style="fill:#3A2C51;" d="M460.8,415.338h-24.555V193.82c0-8.882-6.792-15.673-15.673-15.673h-79.935
	c-8.882,0-15.673,6.792-15.673,15.673v221.518h-25.6V284.726c0-8.882-6.792-15.673-15.673-15.673h-79.935
	c-8.882,0-15.673,6.792-15.673,15.673v130.612h-25.6V347.42c0-8.882-6.792-15.673-15.673-15.673H66.873
	c-8.882,0-15.673,6.792-15.673,15.673v67.918H31.347v-149.42c44.931-7.837,185.992-42.841,271.151-178.155l11.494,57.469
	c1.567,7.314,7.837,12.539,15.151,12.539c1.045,0,2.09,0,3.135-0.522c8.359-1.567,14.106-9.927,12.539-18.286l-19.331-96.653
	c-1.045-4.18-3.135-7.837-6.792-9.927c-4.18-2.612-8.359-3.135-12.539-2.09l-96.131,19.331c-8.359,1.567-14.106,9.927-12.539,18.286
	c1.567,8.359,9.927,14.106,18.286,12.539l61.649-12.016C203.233,189.118,76.8,225.167,31.347,234.571v-98.22
	c0-8.882-6.792-15.673-15.673-15.673S0,127.469,0,136.35v294.661c0,8.882,6.792,15.673,15.673,15.673H460.8
	c8.882,0,15.673-6.792,15.673-15.673S469.682,415.338,460.8,415.338z M356.31,209.493h48.588v205.845H356.31V209.493z
	 M219.429,300.399h48.588v114.939h-48.588V300.399z M82.547,363.093h48.588v52.245H82.547V363.093z"/>
<g>
</g>
<g>
</g>
<g>
</g>
<g>
</g>
<g>
</g>
<g>
</g>
<g>
</g>
<g>
</g>
<g>
</g>
<g>
</g>
<g>
</g>
<g>
</g>
<g>
</g>
<g>
</g>
<g>
</g>
</svg>
